# xmcd
#
# Track frame offsets: 
#        150
#        24100
#        59679
#        101859
#        128369
#        152785
#        178326
#        199106
#        213526
#        236663
#        292107
#
# Disc length: 4266 seconds
#
# Revision: 0
# Processed by: cddbd v1.5.2PL0 Copyright (c) Steve Scherf et al.
# Submitted via: ExactAudioCopy v0.99pb3
#
DISCID=a310a80b
DTITLE=The Allman Brothers Band - hittin' the note
DYEAR=2003
DGENRE=Blues
TTITLE0=Firing Line
TTITLE1=High Cost of Low Living
TTITLE2=Desdemona
TTITLE3=Woman Across the River
TTITLE4=Old Before My Time
TTITLE5=Who To Believe
TTITLE6=Maydell
TTITLE7=Rockin' Horse
TTITLE8=Heart of Stone
TTITLE9=Instrumental Illness
TTITLE10=Old Friend
EXTD=
EXTT0=
EXTT1=
EXTT2=
EXTT3=
EXTT4=
EXTT5=
EXTT6=
EXTT7=
EXTT8=
EXTT9=
EXTT10=
PLAYORDER=
